# xmcd
#
# Track frame offsets:
#	150
#	12157
#	31138
#	44015
#	54693
#	65779
#	78656
#	92677
#	104971
#	117098
#	129025
#	139563
#	150099
#	161945
#	181761
#	191156
#
# Disc length: 2726 seconds
#
# Revision: 2
# Processed by: cddbd v1.5.1PL0 Copyright (c) Steve Scherf et al.
# Submitted via: audiograbber 1.83.01
#
DISCID=d60aa410
DTITLE=Diverse - My Country
DYEAR=1900
DGENRE=
TTITLE0=Frankie Lane - Do not forsake me
TTITLE1=Marty Robins - El Paso
TTITLE2=Hank Williams - Jambalaya
TTITLE3=Leroy van Dyke - Walk on by
TTITLE4=Don Gibson - Oh Lonesome Me
TTITLE5=Kenny Rogers - Oh Ruby
TTITLE6=Campbell Glen - Rhinestone Cowboy
TTITLE7=Don Williams - Some Brocken Hearts Never Mend
TTITLE8=Nat Stuckey - Take Me Home Country roads
TTITLE9=Johnnny  Cash - Ring Of Fire
TTITLE10=Roger Miller - King Of The Road
TTITLE11=Jim Reeves - He´ll have to go
TTITLE12=Guy Mitchell - Hearttaches By The Number
TTITLE13=Lee Marvin - Wandering Star
TTITLE14=Dave Dudley - Rolli´n on your track
TTITLE15=Hoyt Axton - Della and the Dealers
EXTD=
EXTT0=
EXTT1=
EXTT2=
EXTT3=
EXTT4=
EXTT5=
EXTT6=
EXTT7=
EXTT8=
EXTT9=
EXTT10=
EXTT11=
EXTT12=
EXTT13=
EXTT14=
EXTT15=
PLAYORDER=
